<svg xmlns="http://www.w3.org/2000/svg" xmlns:xlink="http://www.w3.org/1999/xlink" width="148.991" height="154.184" viewBox="0 0 148.991 154.184">
  <defs>
    <clipPath id="clip-path">
      <rect id="Rectángulo_456389" data-name="Rectángulo 456389" width="148.991" height="154.184" fill="none"/>
    </clipPath>
    <clipPath id="clip-path-2">
      <rect id="Rectángulo_457086" data-name="Rectángulo 457086" width="63.05" height="63.333" fill="none"/>
    </clipPath>
  </defs>
  <g id="Grupo_1207693" data-name="Grupo 1207693" transform="translate(10865.787 -7215.816)">
    <g id="Grupo_1207247" data-name="Grupo 1207247" transform="translate(-10865.787 7215.816)">
      <g id="Grupo_1206342" data-name="Grupo 1206342" clip-path="url(#clip-path)">
        <path id="Trazado_1267520" data-name="Trazado 1267520" d="M74.5,0A74.5,74.5,0,1,1,0,74.5,74.495,74.495,0,0,1,74.5,0" fill="#d99188"/>
        <circle id="Elipse_13747" data-name="Elipse 13747" cx="68.055" cy="68.055" r="68.055" transform="translate(6.44 6.44)" fill="none" stroke="#fff" stroke-miterlimit="10" stroke-width="1.062" stroke-dasharray="8.552 8.552"/>
        <path id="Trazado_1267525" data-name="Trazado 1267525" d="M126.237,137.247A14.938,14.938,0,1,0,111.3,152.184a14.938,14.938,0,0,0,14.938-14.937" fill="#f0dfd3"/>
        <path id="Trazado_1267526" data-name="Trazado 1267526" d="M126.237,137.247A14.938,14.938,0,1,0,111.3,152.184,14.938,14.938,0,0,0,126.237,137.247Z" fill="none" stroke="#7f222f" stroke-miterlimit="10" stroke-width="4"/>
        <g id="Grupo_1207487" data-name="Grupo 1207487" transform="translate(40.97 40.184)">
          <g id="Grupo_1207486" data-name="Grupo 1207486" clip-path="url(#clip-path-2)">
            <path id="Trazado_1272663" data-name="Trazado 1272663" d="M241.758,52.589a10.048,10.048,0,0,1-2.945-.378,12.689,12.689,0,0,1-1.974-.822A13.942,13.942,0,0,0,232.82,50a1.086,1.086,0,1,1,.364-2.142,16,16,0,0,1,4.6,1.572,11.159,11.159,0,0,0,1.659.7,7.829,7.829,0,0,0,2.321.285,7.485,7.485,0,0,0,3.977-.982,0,0,0,0,0,0,0l.034-.017a15.615,15.615,0,0,1,7.557-1.793c.215,0,.436,0,.657.011a1.088,1.088,0,0,1-.031,2.176h-.034c-.2-.006-.4-.008-.59-.008a13.5,13.5,0,0,0-6.628,1.586c-.006,0-.008.006-.014.006s-.008.006-.014.006a9.7,9.7,0,0,1-4.92,1.191m4-3.166s0,0-.006,0,0,0,.006,0" transform="translate(-204.528 -41.998)"/>
            <path id="Trazado_1272664" data-name="Trazado 1272664" d="M225.617,104.717a17.165,17.165,0,0,1-3.6-.352,16.589,16.589,0,0,1-3.994-1.457,7.469,7.469,0,0,0-3.373-.971,1.088,1.088,0,0,1,.1-2.173,9.5,9.5,0,0,1,4.212,1.183,14.55,14.55,0,0,0,3.5,1.289,14.937,14.937,0,0,0,3.149.3,15.521,15.521,0,0,0,2.657-.213,13.968,13.968,0,0,0,3.991-1.382,9.65,9.65,0,0,1,3.639-1.141,1.088,1.088,0,1,1,.212,2.165,7.529,7.529,0,0,0-2.9.934,16.034,16.034,0,0,1-4.57,1.569,18.077,18.077,0,0,1-3.023.243" transform="translate(-188.387 -87.982)"/>
            <path id="Trazado_1272665" data-name="Trazado 1272665" d="M450.787,106.315a4.221,4.221,0,0,1-1.007-.123,15.677,15.677,0,0,1-2.993-1.1,1.087,1.087,0,0,1,.926-1.966,13.559,13.559,0,0,0,2.59.954,2.024,2.024,0,0,0,.484.059,1.991,1.991,0,0,0,1.893-1.41,1.086,1.086,0,1,1,2.081.626,4.175,4.175,0,0,1-3.974,2.956" transform="translate(-393.476 -89.919)"/>
            <path id="Trazado_1272666" data-name="Trazado 1272666" d="M466.287,64.631a1.084,1.084,0,0,1-.817-.369,2,2,0,0,0-1.026-.626,11.711,11.711,0,0,1-2.318-.917l-.073-.036-.31-.148a1.087,1.087,0,0,1,.934-1.963c.109.05.215.1.322.154l.073.036a9.643,9.643,0,0,0,1.907.766,4.2,4.2,0,0,1,2.131,1.3,1.089,1.089,0,0,1-.1,1.535,1.117,1.117,0,0,1-.722.269" transform="translate(-406.668 -53.324)"/>
            <path id="Trazado_1272667" data-name="Trazado 1272667" d="M28.907,55.09c-.151,0-.3,0-.439-.006a9.528,9.528,0,0,1-4.486-1.194l-.017-.008c-.551-.266-1.121-.54-1.787-.789a11.925,11.925,0,0,0-1.295-.4,1.977,1.977,0,0,0-2.1.783,1.087,1.087,0,0,1-1.773-1.259,4.154,4.154,0,0,1,4.4-1.636,14.007,14.007,0,0,1,1.53.473c.761.283,1.4.593,1.975.867l.02.008a7.355,7.355,0,0,0,3.6.979c.12,0,.249.006.378.006a7.458,7.458,0,0,0,3.977-.985l.006,0a17.31,17.31,0,0,1,3.339-1.3,1.136,1.136,0,0,1,.277-.036,1.087,1.087,0,0,1,.252,2.145,15.39,15.39,0,0,0-2.92,1.149l-.006,0a9.637,9.637,0,0,1-4.928,1.2" transform="translate(-14.823 -44.5)"/>
            <path id="Trazado_1272668" data-name="Trazado 1272668" d="M28.829,97.274c-.551,0-1.091-.022-1.605-.064a15.415,15.415,0,0,1-5.988-1.745c-.224-.109-.434-.21-.638-.3a7.246,7.246,0,0,0-1.27-.464,4.181,4.181,0,0,1-2.414-1.667A1.087,1.087,0,0,1,18.7,91.789a2,2,0,0,0,1.163.8,9.39,9.39,0,0,1,1.642.6c.224.1.445.21.677.322A13.379,13.379,0,0,0,27.4,95.045c.456.036.937.056,1.426.056a13.211,13.211,0,0,0,5.546-1.08,1.087,1.087,0,0,1,.864,1.994,15.269,15.269,0,0,1-6.41,1.259" transform="translate(-14.745 -80.539)"/>
            <path id="Trazado_1272669" data-name="Trazado 1272669" d="M367.768,219.844a4.214,4.214,0,0,1-1-.123h0c-.081-.02-.165-.042-.243-.064a17.707,17.707,0,0,1-3.278-1.286l0,0a8.022,8.022,0,0,0-2.553-.892,10.144,10.144,0,0,0-1.418-.09,7.484,7.484,0,0,0-3.977.982l-.475-.976.473.979c-.517.249-1.1.531-1.776.794a1.121,1.121,0,0,1-.394.073,1.088,1.088,0,0,1-.366-2.112c.585-.229,1.1-.475,1.591-.716l0,0a9.643,9.643,0,0,1,4.922-1.2,11.978,11.978,0,0,1,1.728.112,9.942,9.942,0,0,1,3.191,1.085l.006,0a15.632,15.632,0,0,0,2.892,1.144c.067.02.137.036.207.053a2.041,2.041,0,0,0,.484.059,1.994,1.994,0,0,0,1.768-1.094,1.087,1.087,0,1,1,1.958.945,4.187,4.187,0,0,1-3.731,2.33" transform="translate(-310.457 -189.793)"/>
            <path id="Trazado_1272670" data-name="Trazado 1272670" d="M367.675,168.931a1.087,1.087,0,0,1-.819-.372,2.018,2.018,0,0,0-1.029-.629,10.72,10.72,0,0,1-2.033-.777l-.288-.137a13.407,13.407,0,0,0-6.614-1.594h-.034a13.191,13.191,0,0,0-6.01,1.289,1.087,1.087,0,0,1-.914-1.972,15.376,15.376,0,0,1,6.928-1.493h.036a15.673,15.673,0,0,1,7.56,1.809c.1.045.185.09.277.132a8.362,8.362,0,0,0,1.628.632,4.18,4.18,0,0,1,2.134,1.306,1.089,1.089,0,0,1-.819,1.807" transform="translate(-308.054 -143.968)"/>
            <path id="Trazado_1272671" data-name="Trazado 1272671" d="M118.565,220.226a1.087,1.087,0,0,1-.048-2.173,13.325,13.325,0,0,0,5.82-1.575,14.29,14.29,0,0,1,1.759-.752,9.773,9.773,0,0,1,3.166-.447,9.307,9.307,0,0,1,3.781.674c.383.157.747.333,1.13.517l.014.006a13.317,13.317,0,0,0,5.51,1.558,1.087,1.087,0,0,1-.14,2.17,15.346,15.346,0,0,1-6.312-1.771l-.014-.008c-.369-.179-.691-.333-1.012-.467a7.076,7.076,0,0,0-2.953-.512,7.709,7.709,0,0,0-2.484.336,12.236,12.236,0,0,0-1.493.646,15.367,15.367,0,0,1-6.67,1.79.126.126,0,0,1-.053.008" transform="translate(-103.606 -189.857)"/>
            <path id="Trazado_1272672" data-name="Trazado 1272672" d="M140.966,168.181a.779.779,0,0,1-.081,0,9.527,9.527,0,0,1-3.9-1.163,13.7,13.7,0,0,0-4.285-1.429,16.137,16.137,0,0,0-2.366-.165,14.428,14.428,0,0,0-3.82.467,15.457,15.457,0,0,0-2.825,1.124l0,0a9.61,9.61,0,0,1-3.82,1.158c-.031,0-.059,0-.089,0a1.087,1.087,0,0,1-.087-2.17,7.506,7.506,0,0,0,3.049-.948l0,0a17.462,17.462,0,0,1,3.2-1.264,16.507,16.507,0,0,1,4.394-.545,18.6,18.6,0,0,1,2.688.187,15.829,15.829,0,0,1,4.908,1.622,7.492,7.492,0,0,0,3.116.954,1.088,1.088,0,0,1-.078,2.173" transform="translate(-104.675 -143.968)"/>
            <path id="Trazado_1272673" data-name="Trazado 1272673" d="M24.586,213.34a1.078,1.078,0,0,1-.383-.07c-.747-.282-1.373-.585-1.927-.853a9.8,9.8,0,0,0-1.9-.766,4.155,4.155,0,0,1-2.229-1.421,1.088,1.088,0,1,1,1.7-1.356,2.009,2.009,0,0,0,1.063.669,11.7,11.7,0,0,1,2.319.917c.512.249,1.094.529,1.748.775a1.088,1.088,0,0,1-.386,2.106" transform="translate(-15.785 -183.841)"/>
            <path id="Trazado_1272674" data-name="Trazado 1272674" d="M17.353,169.7a1.087,1.087,0,0,1-1.088-1.088,1.072,1.072,0,0,1,.179-.6,4.173,4.173,0,0,1,4.483-1.762,14.168,14.168,0,0,1,1.829.587,1.089,1.089,0,0,1-.4,2.1,1.112,1.112,0,0,1-.4-.076,11.625,11.625,0,0,0-1.552-.5,1.986,1.986,0,0,0-2.131.831,1.088,1.088,0,0,1-.917.5" transform="translate(-14.344 -146.511)"/>
            <path id="Trazado_1272675" data-name="Trazado 1272675" d="M459.016,343.451a4.221,4.221,0,0,1-1.007-.123,14.132,14.132,0,0,1-1.826-.587,1.087,1.087,0,0,1,.8-2.022,11.76,11.76,0,0,0,1.552.5,1.983,1.983,0,0,0,2.142-.845,1.087,1.087,0,0,1,1.818,1.191,4.144,4.144,0,0,1-3.476,1.888" transform="translate(-401.706 -299.744)"/>
            <path id="Trazado_1272676" data-name="Trazado 1272676" d="M455.519,291.288a1.083,1.083,0,0,1-.845-.4,2.011,2.011,0,0,0-1.074-.682,11.722,11.722,0,0,1-2.319-.917c-.54-.26-1.1-.529-1.748-.775a1.088,1.088,0,0,1,.766-2.036c.744.28,1.373.585,1.927.853a9.8,9.8,0,0,0,1.9.766,4.165,4.165,0,0,1,2.229,1.421,1.086,1.086,0,0,1-.842,1.773" transform="translate(-395.828 -252.584)"/>
            <path id="Trazado_1272677" data-name="Trazado 1272677" d="M227.756,336.122a18.6,18.6,0,0,1-2.688-.187,15.778,15.778,0,0,1-4.906-1.622,7.464,7.464,0,0,0-3.11-.954,1.088,1.088,0,0,1,.073-2.173.775.775,0,0,1,.081,0,9.583,9.583,0,0,1,3.9,1.163,13.749,13.749,0,0,0,4.282,1.429,16.178,16.178,0,0,0,2.366.165,14.424,14.424,0,0,0,3.82-.467,15.49,15.49,0,0,0,2.828-1.127,9.567,9.567,0,0,1,3.818-1.158,1.087,1.087,0,0,1,.176,2.168,7.519,7.519,0,0,0-3.048.948,17.585,17.585,0,0,1-3.2,1.264,16.394,16.394,0,0,1-4.394.548" transform="translate(-190.525 -292.077)"/>
            <path id="Trazado_1272678" data-name="Trazado 1272678" d="M229.765,284a9.254,9.254,0,0,1-3.781-.677c-.391-.159-.772-.344-1.141-.523a13.289,13.289,0,0,0-5.51-1.558,1.087,1.087,0,0,1,.14-2.17,15.38,15.38,0,0,1,6.318,1.77c.358.173.694.336,1.024.47a7.085,7.085,0,0,0,2.954.512,7.718,7.718,0,0,0,2.484-.336,12.412,12.412,0,0,0,1.488-.643l.008,0a15.364,15.364,0,0,1,6.667-1.79,1.088,1.088,0,1,1,.1,2.173,13.346,13.346,0,0,0-5.82,1.575l-.008.006a14.119,14.119,0,0,1-1.751.75,9.806,9.806,0,0,1-3.169.445" transform="translate(-192.534 -246.096)"/>
            <path id="Trazado_1272679" data-name="Trazado 1272679" d="M27.028,286.365a12,12,0,0,1-1.728-.112,10.012,10.012,0,0,1-3.191-1.085l-.006,0a15.414,15.414,0,0,0-2.892-1.144l-.2-.053h0a2,2,0,0,0-2.263,1.054,1.087,1.087,0,1,1-1.952-.957,4.191,4.191,0,0,1,1.933-1.921,4.142,4.142,0,0,1,2.8-.288c.078.02.159.039.249.064a17.549,17.549,0,0,1,3.278,1.286l.006,0a8.027,8.027,0,0,0,2.553.892,10.162,10.162,0,0,0,1.421.09,7.458,7.458,0,0,0,3.977-.985c.515-.249,1.1-.531,1.779-.794a1.087,1.087,0,0,1,.786,2.028c-.6.232-1.119.484-1.619.727a9.678,9.678,0,0,1-4.925,1.2" transform="translate(-12.944 -248.464)"/>
            <path id="Trazado_1272680" data-name="Trazado 1272680" d="M30.378,330.553h-.036a15.65,15.65,0,0,1-7.557-1.809l-.092-.045c-.064-.031-.126-.062-.187-.09l-.025-.011a8.4,8.4,0,0,0-1.6-.621,4.176,4.176,0,0,1-2.134-1.306,1.086,1.086,0,1,1,1.636-1.429,2.006,2.006,0,0,0,1.029.629,10.531,10.531,0,0,1,2.033.777l.025.011c.056.028.112.053.171.081l.09.045a13.43,13.43,0,0,0,6.617,1.594h.034a13.19,13.19,0,0,0,6.01-1.289,1.087,1.087,0,0,1,.915,1.972,15.4,15.4,0,0,1-6.925,1.491" transform="translate(-16.294 -286.507)"/>
            <path id="Trazado_1272681" data-name="Trazado 1272681" d="M371.3,400.172a1.082,1.082,0,0,1-.808-.361,2.028,2.028,0,0,0-1.01-.61,9.3,9.3,0,0,1-1.642-.6c-.224-.1-.442-.207-.677-.322a13.377,13.377,0,0,0-5.224-1.538c-.456-.036-.937-.056-1.426-.056a13.147,13.147,0,0,0-5.546,1.082,1.087,1.087,0,0,1-.864-1.994,15.216,15.216,0,0,1,6.41-1.261c.548,0,1.088.022,1.605.064a15.417,15.417,0,0,1,5.988,1.745l0,0c.221.106.431.21.635.3a7.178,7.178,0,0,0,1.27.464,4.206,4.206,0,0,1,2.1,1.264,1.086,1.086,0,0,1-.811,1.812" transform="translate(-311.71 -347.929)"/>
            <path id="Trazado_1272682" data-name="Trazado 1272682" d="M356.908,451.179a4.221,4.221,0,0,1-1.007-.123,13.844,13.844,0,0,1-1.513-.467l-.017-.006c-.772-.285-1.421-.6-1.994-.875a7.387,7.387,0,0,0-3.6-.979c-.12,0-.246-.006-.375-.006a7.484,7.484,0,0,0-3.977.982,17.606,17.606,0,0,1-3.348,1.306,1.131,1.131,0,0,1-.274.036,1.087,1.087,0,0,1-.252-2.145,15.558,15.558,0,0,0,2.925-1.152,9.656,9.656,0,0,1,4.925-1.2c.151,0,.3,0,.439.006a9.517,9.517,0,0,1,4.486,1.194c.551.266,1.121.543,1.79.791l.017.006a12.324,12.324,0,0,0,1.295.4,2.03,2.03,0,0,0,.484.059,1.988,1.988,0,0,0,1.7-.979,1.088,1.088,0,1,1,1.871,1.11,4.18,4.18,0,0,1-3.577,2.042" transform="translate(-299.597 -393.817)"/>
            <path id="Trazado_1272683" data-name="Trazado 1272683" d="M106.478,451.495c-.221,0-.442,0-.66-.011a1.087,1.087,0,1,1,.07-2.173c.193.006.391.008.59.008a13.375,13.375,0,0,0,6.626-1.583l.008,0,.017-.008a9.652,9.652,0,0,1,4.922-1.2A10.056,10.056,0,0,1,121,446.9a12.957,12.957,0,0,1,1.975.82l.006,0a13.889,13.889,0,0,0,4.016,1.387,1.086,1.086,0,0,1-.364,2.142,15.927,15.927,0,0,1-4.6-1.572l-.006,0a11.073,11.073,0,0,0-1.653-.7,7.841,7.841,0,0,0-2.321-.285,7.485,7.485,0,0,0-3.977.982l-.008,0-.014.008a15.6,15.6,0,0,1-7.576,1.8" transform="translate(-92.394 -393.795)"/>
            <path id="Trazado_1272684" data-name="Trazado 1272684" d="M142.425,399.49h-.053a9.51,9.51,0,0,1-4.212-1.183l.47-.982-.473.979a14.45,14.45,0,0,0-3.5-1.286,14.927,14.927,0,0,0-3.149-.3,15.473,15.473,0,0,0-2.657.213,13.968,13.968,0,0,0-3.991,1.382,9.6,9.6,0,0,1-3.642,1.141,1.088,1.088,0,0,1-.213-2.165,7.576,7.576,0,0,0,2.906-.934,15.957,15.957,0,0,1,4.57-1.566,17.838,17.838,0,0,1,3.026-.243,17.12,17.12,0,0,1,3.6.352,16.591,16.591,0,0,1,3.994,1.457l0,0a7.41,7.41,0,0,0,3.37.968,1.086,1.086,0,0,1-.05,2.17" transform="translate(-105.852 -347.949)"/>
            <path id="Trazado_1272685" data-name="Trazado 1272685" d="M14.256,401.735a1.012,1.012,0,0,1-.313-.048,1.086,1.086,0,0,1-.727-1.354A4.152,4.152,0,0,1,18.2,397.5a15.749,15.749,0,0,1,2.993,1.1,1.087,1.087,0,0,1-.926,1.966,13.6,13.6,0,0,0-2.593-.954,1.981,1.981,0,0,0-2.377,1.351,1.081,1.081,0,0,1-1.038.775" transform="translate(-11.614 -350.452)"/>
            <path id="Trazado_1272686" data-name="Trazado 1272686" d="M23.657,444.654a1.073,1.073,0,0,1-.467-.106l-.322-.154-.07-.034a9.642,9.642,0,0,0-1.907-.766,4.174,4.174,0,0,1-2.131-1.3,1.088,1.088,0,0,1,1.639-1.432,2.011,2.011,0,0,0,1.026.626,11.711,11.711,0,0,1,2.319.917l.07.034.313.151a1.086,1.086,0,0,1-.47,2.067" transform="translate(-16.307 -388.47)"/>
            <path id="Trazado_1272687" data-name="Trazado 1272687" d="M49.545,360.412a1.091,1.091,0,0,1-.585-.171,4.182,4.182,0,0,1-1.807-4.531,14.619,14.619,0,0,1,.669-2.033c.232-.565.475-1.071.691-1.516a7.547,7.547,0,0,0,.99-4.013v-.028a7.509,7.509,0,0,0-.993-3.985,16.962,16.962,0,0,1-1.415-3.779,1.029,1.029,0,0,1-.028-.243,1.088,1.088,0,0,1,2.154-.221,14.981,14.981,0,0,0,1.247,3.3,9.707,9.707,0,0,1,1.208,4.931v.028a9.613,9.613,0,0,1-1.208,4.959c-.213.439-.431.889-.638,1.4a12.66,12.66,0,0,0-.571,1.731,2.009,2.009,0,0,0,.87,2.176,1.087,1.087,0,0,1-.585,2" transform="translate(-41.477 -298.99)"/>
            <path id="Trazado_1272688" data-name="Trazado 1272688" d="M89.829,374.006a1.088,1.088,0,0,1-.646-1.963,2.044,2.044,0,0,0,.766-1.147,10.588,10.588,0,0,1,.792-2.064c.022-.047.045-.1.07-.143l.062-.126a0,0,0,0,1,0,0,13.4,13.4,0,0,0,1.569-5.515c.025-.38.039-.777.039-1.189a13.207,13.207,0,0,0-1.161-5.756,1.087,1.087,0,1,1,1.986-.884,15.407,15.407,0,0,1,1.351,6.642c0,.459-.014.906-.045,1.334a15.506,15.506,0,0,1-1.779,6.315l-.062.126c-.022.048-.045.092-.067.14a8.6,8.6,0,0,0-.646,1.658,4.215,4.215,0,0,1-1.586,2.363,1.112,1.112,0,0,1-.646.21" transform="translate(-78.262 -312.702)"/>
            <path id="Trazado_1272689" data-name="Trazado 1272689" d="M45.5,129.265a1.179,1.179,0,0,1-.2-.017,1.085,1.085,0,0,1-.875-1.264,16.215,16.215,0,0,1,1.558-4.472,10.942,10.942,0,0,0,.722-1.731,8.137,8.137,0,0,0,.271-2.282,7.552,7.552,0,0,0-.987-4.008v0s0-.008-.006-.011a15.771,15.771,0,0,1-1.821-7.644c0-.19,0-.38.008-.565a1.087,1.087,0,1,1,2.173.059c-.006.162-.006.333-.006.5a13.539,13.539,0,0,0,1.6,6.693c0,.006,0,.008.006.014a9.7,9.7,0,0,1,1.208,4.959,10.211,10.211,0,0,1-.355,2.886,12.672,12.672,0,0,1-.853,2.072,14.2,14.2,0,0,0-1.376,3.913,1.092,1.092,0,0,1-1.071.9" transform="translate(-38.95 -93.668)"/>
            <path id="Trazado_1272690" data-name="Trazado 1272690" d="M97.817,146.095a.492.492,0,0,1-.064,0,1.089,1.089,0,0,1-1.024-1.149,9.55,9.55,0,0,1,1.183-4.114,14.709,14.709,0,0,0,1.289-3.482,15.03,15.03,0,0,0,.319-3.222,16.068,16.068,0,0,0-.19-2.537,13.958,13.958,0,0,0-1.418-4.164l0-.006a9.867,9.867,0,0,1-1.119-3.4,1.086,1.086,0,1,1,2.156-.266,7.743,7.743,0,0,0,.92,2.724l-.976.478.979-.473a15.955,15.955,0,0,1,1.605,4.766,18.433,18.433,0,0,1,.215,2.881,17.311,17.311,0,0,1-.366,3.683,16.623,16.623,0,0,1-1.457,3.966,7.494,7.494,0,0,0-.97,3.3,1.079,1.079,0,0,1-1.08,1.024" transform="translate(-85.305 -108.294)"/>
            <path id="Trazado_1272691" data-name="Trazado 1272691" d="M102.058,22.519a1.041,1.041,0,0,1-.47-.109,1.089,1.089,0,0,1-.509-1.451,14.5,14.5,0,0,0,1.119-2.945,2.075,2.075,0,0,0,.062-.489,2.006,2.006,0,0,0-1.326-1.882,1.087,1.087,0,0,1,.741-2.044,4.19,4.19,0,0,1,2.76,3.927,4.284,4.284,0,0,1-.123,1.012,16.51,16.51,0,0,1-1.27,3.365,1.093,1.093,0,0,1-.985.618" transform="translate(-88.382 -11.934)"/>
            <path id="Trazado_1272692" data-name="Trazado 1272692" d="M57.382,24.948a1.074,1.074,0,0,1-.459-.1A1.088,1.088,0,0,1,56.4,23.4c.1-.213.2-.411.288-.6a9.894,9.894,0,0,0,.772-1.921,4.185,4.185,0,0,1,1.309-2.142A1.088,1.088,0,0,1,60.2,20.37a2.034,2.034,0,0,0-.632,1.038,11.88,11.88,0,0,1-.923,2.335c-.087.182-.182.375-.274.576a1.106,1.106,0,0,1-.993.629" transform="translate(-49.649 -16.284)"/>
            <path id="Trazado_1272693" data-name="Trazado 1272693" d="M163.244,38.156a1.088,1.088,0,0,1-.985-.624,15.4,15.4,0,0,1-1.591-6.844c0-.106,0-.215,0-.327a15.617,15.617,0,0,1,1.728-7.456.17.17,0,0,1,.011-.022c.017-.034.034-.067.048-.1l.034-.067a9.637,9.637,0,0,0,.772-1.924,4.2,4.2,0,0,1,1.331-2.162,1.087,1.087,0,1,1,1.421,1.645,2.024,2.024,0,0,0-.643,1.049,11.681,11.681,0,0,1-.923,2.332l-.034.073c-.02.039-.039.081-.059.12a.112.112,0,0,1-.014.025,13.393,13.393,0,0,0-1.5,6.489c0,.1,0,.2,0,.294A13.209,13.209,0,0,0,164.22,36.6a1.088,1.088,0,0,1-.517,1.449,1.065,1.065,0,0,1-.459.1" transform="translate(-141.692 -16.197)"/>
            <path id="Trazado_1272694" data-name="Trazado 1272694" d="M216.12,34.621a1.086,1.086,0,0,1-1.018-.708c-.249-.666-.526-1.239-.791-1.793l0-.006a9.7,9.7,0,0,1-1.208-4.959,13.009,13.009,0,0,1,.07-1.415,9.789,9.789,0,0,1,1.135-3.543,16.708,16.708,0,0,0,1.06-2.587c.053-.176.1-.358.148-.54a2.08,2.08,0,0,0,.062-.489,2.021,2.021,0,0,0-1.11-1.79,1.088,1.088,0,0,1,.976-1.944,4.2,4.2,0,0,1,1.675,1.527,4.154,4.154,0,0,1,.635,2.207,4.251,4.251,0,0,1-.123,1.012c-.053.215-.112.431-.176.64a18.52,18.52,0,0,1-1.183,2.909,7.715,7.715,0,0,0-.934,2.833,10.791,10.791,0,0,0-.059,1.18,7.546,7.546,0,0,0,.99,4.013l0,.006c.274.57.587,1.214.87,1.977a1.087,1.087,0,0,1-.638,1.4,1.074,1.074,0,0,1-.38.07" transform="translate(-187.935 -12.991)"/>
            <path id="Trazado_1272695" data-name="Trazado 1272695" d="M164.549,241.762a1.087,1.087,0,0,1-1.08-.973,7.7,7.7,0,0,0-.937-2.875,17.851,17.851,0,0,1-1.292-3.295,16.739,16.739,0,0,1-.529-4.355,18.669,18.669,0,0,1,.187-2.69,15.877,15.877,0,0,1,1.636-4.962,7.617,7.617,0,0,0,.954-3.035,1.088,1.088,0,0,1,2.168.187,9.661,9.661,0,0,1-1.161,3.8,13.806,13.806,0,0,0-1.443,4.332,16.259,16.259,0,0,0-.165,2.372,14.491,14.491,0,0,0,.456,3.792,15.729,15.729,0,0,0,1.152,2.911,9.747,9.747,0,0,1,1.144,3.594,1.087,1.087,0,0,1-.968,1.194c-.048,0-.087.006-.123.006" transform="translate(-141.734 -192.772)"/>
            <path id="Trazado_1272696" data-name="Trazado 1272696" d="M216.944,243.379a1.089,1.089,0,0,1-1.085-1.021,13.4,13.4,0,0,0-1.575-5.619,13.351,13.351,0,0,1-.8-1.907c0-.008-.006-.02-.008-.028a10.065,10.065,0,0,1-.4-3.023,9.3,9.3,0,0,1,.7-3.851c.157-.375.327-.73.509-1.107a13.482,13.482,0,0,0,1.569-5.5,1.088,1.088,0,0,1,2.17.145,15.486,15.486,0,0,1-1.779,6.3c-.168.35-.327.68-.461,1a7.167,7.167,0,0,0-.531,3.018,7.886,7.886,0,0,0,.294,2.36l.008.025a11.472,11.472,0,0,0,.691,1.628,15.482,15.482,0,0,1,1.787,6.435,1.085,1.085,0,0,1-1.021,1.149.533.533,0,0,0-.067,0" transform="translate(-187.914 -194.288)"/>
            <path id="Trazado_1272697" data-name="Trazado 1272697" d="M207.4,457.492a1.088,1.088,0,0,1-.688-1.93,2.039,2.039,0,0,0,.688-1.085,11.681,11.681,0,0,1,.923-2.332,18.524,18.524,0,0,0,.892-2.07,1.087,1.087,0,0,1,2.053.716,21,21,0,0,1-.987,2.3,9.687,9.687,0,0,0-.772,1.921,4.19,4.19,0,0,1-1.421,2.235,1.093,1.093,0,0,1-.688.246" transform="translate(-181.946 -396.282)"/>
            <path id="Trazado_1272698" data-name="Trazado 1272698" d="M166.107,463.46a1.06,1.06,0,0,1-.576-.168,4.177,4.177,0,0,1-1.837-4.55,14.735,14.735,0,0,1,.747-2.223,1.088,1.088,0,1,1,2,.85,12.091,12.091,0,0,0-.638,1.9,2.007,2.007,0,0,0,.884,2.187,1.084,1.084,0,0,1,.341,1.5,1.1,1.1,0,0,1-.923.509" transform="translate(-144.253 -402.023)"/>
            <path id="Trazado_1272699" data-name="Trazado 1272699" d="M340.032,23.558a1.087,1.087,0,0,1-1.088-1.088,1.106,1.106,0,0,1,.1-.453,12.538,12.538,0,0,0,.626-1.868,2.092,2.092,0,0,0,.062-.489,2.022,2.022,0,0,0-.945-1.7,1.087,1.087,0,0,1,1.158-1.84,4.216,4.216,0,0,1,1.963,3.538,4.283,4.283,0,0,1-.123,1.012,14.946,14.946,0,0,1-.747,2.223,1.093,1.093,0,0,1-1,.663" transform="translate(-298.33 -14.069)"/>
            <path id="Trazado_1272700" data-name="Trazado 1272700" d="M284.851,26.051a1.092,1.092,0,0,1-1.029-1.446,20.825,20.825,0,0,1,.984-2.293l0-.006a9.687,9.687,0,0,0,.772-1.921A4.174,4.174,0,0,1,287,18.15a1.087,1.087,0,1,1,1.376,1.684,2.043,2.043,0,0,0-.688,1.082,11.814,11.814,0,0,1-.923,2.335l0,.006a18.624,18.624,0,0,0-.889,2.064,1.083,1.083,0,0,1-1.024.73" transform="translate(-250.253 -15.791)"/>
            <path id="Trazado_1272701" data-name="Trazado 1272701" d="M278.6,143.6a.675.675,0,0,1-.075,0,1.089,1.089,0,0,1-1.012-1.158,15.485,15.485,0,0,1,1.779-6.3l.006-.011c.173-.361.325-.671.456-.985a7.167,7.167,0,0,0,.531-3.018,7.909,7.909,0,0,0-.3-2.383,11.49,11.49,0,0,0-.691-1.631,15.479,15.479,0,0,1-1.787-6.433,1.087,1.087,0,1,1,2.17-.129,13.4,13.4,0,0,0,1.575,5.619,13.453,13.453,0,0,1,.811,1.935,10.054,10.054,0,0,1,.4,3.023,9.326,9.326,0,0,1-.7,3.854c-.154.369-.324.722-.5,1.1l-.006.011a13.454,13.454,0,0,0-1.569,5.507A1.089,1.089,0,0,1,278.6,143.6" transform="translate(-244.733 -106.294)"/>
            <path id="Trazado_1272702" data-name="Trazado 1272702" d="M331.059,144.569c-.031,0-.062,0-.1,0a1.087,1.087,0,0,1-.99-1.175,9.658,9.658,0,0,1,1.161-3.8,13.832,13.832,0,0,0,1.443-4.332.1.1,0,0,1,.006-.028,16.315,16.315,0,0,0,.159-2.347,14.491,14.491,0,0,0-.456-3.792,15.643,15.643,0,0,0-1.152-2.911,9.7,9.7,0,0,1-1.141-3.591,1.087,1.087,0,0,1,2.162-.227,7.64,7.64,0,0,0,.937,2.872,17.68,17.68,0,0,1,1.295,3.3,16.71,16.71,0,0,1,.529,4.355,18.643,18.643,0,0,1-.187,2.691.1.1,0,0,1-.006.028,15.946,15.946,0,0,1-1.63,4.931,7.613,7.613,0,0,0-.954,3.037,1.081,1.081,0,0,1-1.08.99" transform="translate(-291.004 -107.059)"/>
            <path id="Trazado_1272703" data-name="Trazado 1272703" d="M282.9,372.986a1.081,1.081,0,0,1-.487-.115,4.182,4.182,0,0,1-2.187-4.746c.053-.213.112-.428.173-.638a18.457,18.457,0,0,1,1.18-2.9l0-.008a7.714,7.714,0,0,0,.934-2.833,10.8,10.8,0,0,0,.059-1.18,7.548,7.548,0,0,0-.99-4.013l-.006-.008c-.274-.568-.585-1.214-.87-1.972a1.087,1.087,0,1,1,2.036-.761c.249.666.523,1.236.789,1.787l.006.008a9.7,9.7,0,0,1,1.208,4.959,13,13,0,0,1-.07,1.415,9.786,9.786,0,0,1-1.136,3.543l0,.008a16.3,16.3,0,0,0-1.054,2.579c-.053.176-.1.361-.148.543a2,2,0,0,0,1.052,2.279,1.086,1.086,0,0,1,.484,1.46,1.1,1.1,0,0,1-.973.6" transform="translate(-247.03 -311.404)"/>
            <path id="Trazado_1272704" data-name="Trazado 1272704" d="M324.5,370.033a1.088,1.088,0,0,1-.71-1.91,2.025,2.025,0,0,0,.643-1.049,11.773,11.773,0,0,1,.923-2.335c.031-.064.062-.129.092-.19.006-.008.008-.017.014-.025a13.392,13.392,0,0,0,1.5-6.489c0-.1,0-.2,0-.294a13.207,13.207,0,0,0-1.382-5.949,1.088,1.088,0,0,1,1.966-.931,15.4,15.4,0,0,1,1.591,6.844c0,.106,0,.215,0,.324a15.6,15.6,0,0,1-1.728,7.456c0,.008-.008.017-.011.025-.028.059-.056.115-.081.171a9.892,9.892,0,0,0-.772,1.921,4.2,4.2,0,0,1-1.331,2.162,1.093,1.093,0,0,1-.716.269" transform="translate(-285.22 -308.88)"/>
            <path id="Trazado_1272705" data-name="Trazado 1272705" d="M449.689,37.466a1.086,1.086,0,0,1-1.057-.845,14.97,14.97,0,0,0-1.253-3.323,9.707,9.707,0,0,1-1.208-4.931v-.031a9.707,9.707,0,0,1,1.208-4.959c.2-.414.425-.881.635-1.4a12.282,12.282,0,0,0,.571-1.731,2.009,2.009,0,0,0-.87-2.176,1.087,1.087,0,0,1,1.172-1.832,4.182,4.182,0,0,1,1.807,4.531,14.389,14.389,0,0,1-.668,2.033c-.235.573-.475,1.074-.691,1.516a7.548,7.548,0,0,0-.99,4.013v.028a7.53,7.53,0,0,0,.99,3.986,16.931,16.931,0,0,1,1.415,3.781,1.086,1.086,0,0,1-.817,1.3.89.89,0,0,1-.243.031" transform="translate(-393.483 -14.175)"/>
            <path id="Trazado_1272706" data-name="Trazado 1272706" d="M396.079,36.531a1.084,1.084,0,0,1-.993-.646,15.408,15.408,0,0,1-1.351-6.642c0-.456.014-.9.042-1.331a15.488,15.488,0,0,1,1.782-6.318l.042-.084c.028-.062.059-.12.087-.179a8.671,8.671,0,0,0,.646-1.658,4.214,4.214,0,0,1,1.586-2.363,1.088,1.088,0,0,1,1.292,1.751,2.044,2.044,0,0,0-.766,1.147,10.581,10.581,0,0,1-.791,2.064c-.028.062-.059.123-.09.187l-.039.084a13.4,13.4,0,0,0-1.569,5.518c-.025.38-.039.78-.039,1.189A13.207,13.207,0,0,0,397.077,35a1.087,1.087,0,0,1-.551,1.435,1.165,1.165,0,0,1-.447.092" transform="translate(-347.239 -15.078)"/>
            <path id="Trazado_1272707" data-name="Trazado 1272707" d="M397.579,239.415a1.084,1.084,0,0,1-1.077-.954,7.776,7.776,0,0,0-.92-2.727,16.017,16.017,0,0,1-1.608-4.768,18.442,18.442,0,0,1-.215-2.883,17.31,17.31,0,0,1,.366-3.683,16.757,16.757,0,0,1,1.454-3.966,7.532,7.532,0,0,0,.973-3.3,1.087,1.087,0,0,1,2.17.129,9.577,9.577,0,0,1-1.183,4.117,14.662,14.662,0,0,0-1.289,3.482,15,15,0,0,0-.319,3.222,16.071,16.071,0,0,0,.19,2.537,13.977,13.977,0,0,0,1.418,4.167,9.847,9.847,0,0,1,1.121,3.407,1.086,1.086,0,0,1-.945,1.211,1.213,1.213,0,0,1-.137.008" transform="translate(-347.26 -190.592)"/>
            <path id="Trazado_1272708" data-name="Trazado 1272708" d="M450.046,257.876h-.031a1.087,1.087,0,0,1-1.057-1.116c.006-.162.006-.333.006-.5a13.542,13.542,0,0,0-1.6-6.7s0,0,0-.006,0-.006-.006-.008a9.588,9.588,0,0,1-1.205-4.95,10.174,10.174,0,0,1,.355-2.883,12.914,12.914,0,0,1,.85-2.072l0-.006a14.141,14.141,0,0,0,1.373-3.91,1.087,1.087,0,1,1,2.14.389,16.181,16.181,0,0,1-1.555,4.466l0,0a11.045,11.045,0,0,0-.722,1.731,8.138,8.138,0,0,0-.271,2.282,7.554,7.554,0,0,0,.99,4.013.01.01,0,0,0,0,.006s0,.006,0,.008a15.755,15.755,0,0,1,1.818,7.635c0,.19,0,.38-.009.565a1.074,1.074,0,0,1-1.077,1.054" transform="translate(-393.462 -207.099)"/>
            <path id="Trazado_1272709" data-name="Trazado 1272709" d="M399.756,455.575a1.069,1.069,0,0,1-.369-.064,4.188,4.188,0,0,1-2.637-4.942,16.511,16.511,0,0,1,1.27-3.364,1.088,1.088,0,1,1,1.961.942,14.49,14.49,0,0,0-1.119,2.945,2,2,0,0,0,1.264,2.372,1.089,1.089,0,0,1-.369,2.112" transform="translate(-349.789 -393.851)"/>
            <path id="Trazado_1272710" data-name="Trazado 1272710" d="M441.147,469.326a1.089,1.089,0,0,1-.719-1.907,2.016,2.016,0,0,0,.632-1.038,11.69,11.69,0,0,1,.923-2.332l.042-.087c.075-.159.157-.325.235-.489a1.087,1.087,0,0,1,2.072.459,1.107,1.107,0,0,1-.115.489c-.078.168-.157.33-.232.487l-.039.084a9.832,9.832,0,0,0-.775,1.924,4.2,4.2,0,0,1-1.309,2.142,1.086,1.086,0,0,1-.716.269" transform="translate(-388.093 -408.186)"/>
            <path id="Trazado_1272711" data-name="Trazado 1272711" d="M3.731,63.327a3.529,3.529,0,0,1-2.537-1.2A3.444,3.444,0,0,1,.03,59.14a6.615,6.615,0,0,1,1.024-2.425,6.249,6.249,0,0,0,1.138-3.183c0-.131,0-.26-.006-.386a6.613,6.613,0,0,0-.548-2.534l-.126-.3a10.119,10.119,0,0,1,0-8.133A6.929,6.929,0,0,0,2.187,39.4c.006-.143.008-.294.008-.45a6.9,6.9,0,0,0-.391-2.5c-.09-.246-.187-.478-.291-.724A9.17,9.17,0,0,1,.66,31.662,9.171,9.171,0,0,1,1.513,27.6a7.176,7.176,0,0,0,.61-2.022v-.008a9.115,9.115,0,0,0,.073-1.189,7.417,7.417,0,0,0-.232-1.991c0-.006,0-.008,0-.014a9.326,9.326,0,0,0-.448-1.217A9.171,9.171,0,0,1,.66,17.088a9.17,9.17,0,0,1,.853-4.067,8.647,8.647,0,0,0,.5-1.4A7.887,7.887,0,0,0,2.195,9.8,4.057,4.057,0,0,0,2.03,8.656a9.105,9.105,0,0,0-.973-2.039A6.635,6.635,0,0,1,.033,4.192,3.444,3.444,0,0,1,1.2,1.205,3.4,3.4,0,0,1,4.17.033,6.6,6.6,0,0,1,6.586,1.057a6.23,6.23,0,0,0,3.16,1.136h.078a6.53,6.53,0,0,0,2.691-.506c.14-.056.274-.115.42-.176A9.06,9.06,0,0,1,16.976.657a9.06,9.06,0,0,1,4.041.853,6.781,6.781,0,0,0,2.649.668c.173.008.355.014.542.014a6.738,6.738,0,0,0,2.439-.378c.257-.092.5-.2.755-.3A9.063,9.063,0,0,1,31.444.66a9.063,9.063,0,0,1,4.041.853,6.958,6.958,0,0,0,2.086.618,8.943,8.943,0,0,0,1.1.062,7.271,7.271,0,0,0,2.056-.255,9.783,9.783,0,0,0,1.135-.428,10,10,0,0,1,8.083,0,7.737,7.737,0,0,0,1.589.537,8.108,8.108,0,0,0,1.6.143,4.088,4.088,0,0,0,1.331-.226A10.072,10.072,0,0,0,56.3,1.054,6.619,6.619,0,0,1,58.721.03,3.4,3.4,0,0,1,61.694,1.2a3.444,3.444,0,0,1,1.163,2.987,6.658,6.658,0,0,1-1.024,2.425A6.249,6.249,0,0,0,60.7,9.8c0,.129,0,.26.006.386v.006a6.6,6.6,0,0,0,.548,2.528l.126.3a9.169,9.169,0,0,1,.853,4.067,9.169,9.169,0,0,1-.853,4.067,6.931,6.931,0,0,0-.674,2.774c-.006.143-.008.294-.008.45a6.9,6.9,0,0,0,.392,2.5c0,.006,0,.008.006.014.087.241.182.467.285.708a9.169,9.169,0,0,1,.853,4.067,9.169,9.169,0,0,1-.853,4.067,7.14,7.14,0,0,0-.61,2.033,9.106,9.106,0,0,0-.073,1.192,7.417,7.417,0,0,0,.232,1.991,9.533,9.533,0,0,0,.45,1.231,9.169,9.169,0,0,1,.853,4.067,7.994,7.994,0,0,1-1.068,4.008,6.481,6.481,0,0,0-.523,1.205,3.669,3.669,0,0,0,.05,2,9.318,9.318,0,0,0,.285.94,14.349,14.349,0,0,0,1.077,2.212,6.092,6.092,0,0,1,.993,2.534,3.777,3.777,0,0,1-1.351,2.987A3.408,3.408,0,0,1,58.718,63.3,6.6,6.6,0,0,1,56.3,62.281a6.231,6.231,0,0,0-3.16-1.135H53.06a6.525,6.525,0,0,0-2.69.506.041.041,0,0,1-.017.006c-.134.053-.266.109-.4.168a10,10,0,0,1-8.083,0,6.779,6.779,0,0,0-2.648-.668c-.173-.008-.355-.014-.543-.014a6.71,6.71,0,0,0-2.436.378c-.006,0-.011,0-.014.006-.252.09-.489.19-.738.3a9.061,9.061,0,0,1-4.041.853,9.061,9.061,0,0,1-4.041-.853,6.958,6.958,0,0,0-2.086-.618,8.943,8.943,0,0,0-1.1-.062,7.275,7.275,0,0,0-2.056.254,9.814,9.814,0,0,0-1.135.428,9.061,9.061,0,0,1-4.041.853,9.061,9.061,0,0,1-4.041-.853,7.738,7.738,0,0,0-1.589-.537,8.108,8.108,0,0,0-1.6-.143,4.058,4.058,0,0,0-1.329.227,10.084,10.084,0,0,0-1.832.909A6.616,6.616,0,0,1,4.172,63.3c-.151.011-.3.022-.442.022m.545-37.488a.017.017,0,0,1,0,.011,9.312,9.312,0,0,1-.761,2.59,7.035,7.035,0,0,0-.682,3.222,7.036,7.036,0,0,0,.682,3.222c.109.26.224.531.33.828a8.983,8.983,0,0,1,.523,3.239c0,.187,0,.369-.011.543a9.043,9.043,0,0,1-.842,3.524,7.948,7.948,0,0,0,0,6.444c.045.106.09.213.134.322a8.773,8.773,0,0,1,.71,3.281c.006.151.008.308.008.464a8.2,8.2,0,0,1-1.435,4.279c-.87,1.488-1.06,1.913-.193,2.786.814.822,1.191.713,2.746-.2A11.829,11.829,0,0,1,7.721,59.3a6.3,6.3,0,0,1,2.022-.338,10.157,10.157,0,0,1,2.039.187,9.818,9.818,0,0,1,2,.668,6.917,6.917,0,0,0,3.191.682,6.917,6.917,0,0,0,3.191-.682,11.868,11.868,0,0,1,1.382-.515,9.358,9.358,0,0,1,2.66-.338,11.039,11.039,0,0,1,1.37.078,9.15,9.15,0,0,1,2.671.775,6.918,6.918,0,0,0,3.191.682,6.958,6.958,0,0,0,3.191-.68c.274-.115.557-.235.87-.35l.017-.006a9,9,0,0,1,3.155-.5c.224,0,.445.006.657.017a8.932,8.932,0,0,1,3.384.836,7.809,7.809,0,0,0,6.385,0c.145-.062.3-.126.456-.19a.04.04,0,0,1,.017-.006,8.8,8.8,0,0,1,3.468-.657h.1A8.175,8.175,0,0,1,57.4,60.4c1.558.912,1.933,1.018,2.746.2,1.057-1.066.878-1.384.008-2.917a16.31,16.31,0,0,1-1.231-2.542,11.484,11.484,0,0,1-.352-1.158,5.868,5.868,0,0,1-.031-3.116,8.357,8.357,0,0,1,.682-1.605,5.856,5.856,0,0,0,.831-3.015,7.025,7.025,0,0,0-.682-3.222,11.18,11.18,0,0,1-.545-1.508,9.553,9.553,0,0,1-.308-2.559,11.527,11.527,0,0,1,.09-1.477,9.312,9.312,0,0,1,.761-2.59,7.035,7.035,0,0,0,.682-3.222,7.048,7.048,0,0,0-.682-3.225c-.109-.26-.224-.529-.33-.825,0-.006,0-.011-.006-.017a9.042,9.042,0,0,1-.515-3.222c0-.187,0-.372.011-.543a9.046,9.046,0,0,1,.842-3.524,7.033,7.033,0,0,0,.682-3.222,7.034,7.034,0,0,0-.682-3.222c-.045-.106-.089-.213-.134-.322a8.735,8.735,0,0,1-.71-3.283v0c-.006-.151-.008-.3-.008-.459a8.2,8.2,0,0,1,1.435-4.279c.87-1.488,1.06-1.913.193-2.786-.814-.822-1.191-.713-2.747.2a11.654,11.654,0,0,1-2.237,1.094,6.3,6.3,0,0,1-2.022.338A10.138,10.138,0,0,1,51.1,4.178a10.015,10.015,0,0,1-2-.666,7.8,7.8,0,0,0-6.382,0,11.872,11.872,0,0,1-1.382.515,9.356,9.356,0,0,1-2.66.338,11.039,11.039,0,0,1-1.37-.078,9.155,9.155,0,0,1-2.671-.775,6.917,6.917,0,0,0-3.191-.682,6.917,6.917,0,0,0-3.191.682c-.274.115-.557.235-.87.35a9.021,9.021,0,0,1-3.172.506c-.224,0-.445-.006-.657-.017a8.931,8.931,0,0,1-3.384-.836,6.915,6.915,0,0,0-3.191-.682,6.907,6.907,0,0,0-3.191.682c-.148.062-.3.126-.456.19a8.744,8.744,0,0,1-3.485.663h-.1A8.174,8.174,0,0,1,5.49,2.936c-1.558-.912-1.933-1.018-2.747-.2-.867.873-.674,1.3.193,2.786A10.924,10.924,0,0,1,4.122,8.06,6.232,6.232,0,0,1,4.371,9.8a9.864,9.864,0,0,1-.249,2.327,10.474,10.474,0,0,1-.6,1.737,7.038,7.038,0,0,0-.682,3.225,7.034,7.034,0,0,0,.682,3.222,11.181,11.181,0,0,1,.545,1.508.122.122,0,0,0,0,.014,9.586,9.586,0,0,1,.3,2.545,11.356,11.356,0,0,1-.092,1.46" transform="translate(0 0)"/>
          </g>
        </g>
      </g>
    </g>
  </g>
</svg>
